<svg width="684" height="820" viewBox="0 0 684 820" fill="none" xmlns="http://www.w3.org/2000/svg">
	<g clip-path="url(#clip0_5_4506)">
		<path d="M724.052 -685.48L976.939 -431.347L1335.59 -432.594L1334.35 -73.9389L1588.48 178.948L1334.35 431.939L1335.59 790.593L976.939 789.347L724.052 1043.48L471.061 789.347L112.406 790.593L113.653 431.939L-140.48 179.052L113.653 -73.835L112.406 -432.49L471.061 -431.243L724.052 -685.48Z" stroke="url(#paint0_linear_5_4506)" stroke-width="1.5" stroke-miterlimit="10" stroke-linecap="round" stroke-linejoin="round" />
		<path d="M706.078 -629.064L942.86 -391.138L1278.55 -392.281L1277.41 -56.4839L1515.34 180.299L1277.41 417.082L1278.55 752.775L942.86 751.632L706.078 989.558L469.295 751.632L133.602 752.775L134.745 417.082L-103.181 180.299L134.745 -56.4839L133.602 -392.281L469.295 -391.138L706.078 -629.064Z" stroke="url(#paint1_linear_5_4506)" stroke-width="1.5" stroke-miterlimit="10" stroke-linecap="round" stroke-linejoin="round" />
		<path d="M688.103 -572.544L908.782 -350.826L1221.62 -351.969L1220.58 -39.1331L1442.3 181.546L1220.58 402.224L1221.62 715.06L908.782 713.917L688.103 935.635L467.529 713.917L154.693 715.06L155.732 402.224L-65.9858 181.546L155.732 -39.1331L154.693 -351.969L467.529 -350.826L688.103 -572.544Z" stroke="url(#paint2_linear_5_4506)" stroke-width="1.5" stroke-miterlimit="10" stroke-linecap="round" stroke-linejoin="round" />
		<path d="M670.233 -516.127L874.704 -310.618L1164.68 -311.657L1163.64 -21.6782L1369.15 182.792L1163.64 387.263L1164.68 677.241L874.704 676.202L670.233 881.712L465.659 676.202L175.784 677.241L176.719 387.263L-28.6865 182.792L176.719 -21.6782L175.784 -311.657L465.659 -310.618L670.233 -516.127Z" stroke="url(#paint3_linear_5_4506)" stroke-width="1.5" stroke-miterlimit="10" stroke-linecap="round" stroke-linejoin="round" />
		<path d="M652.259 -459.711L840.625 -270.409L1107.64 -271.344L1106.71 -4.32753L1296.01 184.039L1106.71 372.405L1107.64 639.422L840.625 638.591L652.259 827.789L463.892 638.591L196.875 639.422L197.81 372.405L8.50879 184.039L197.81 -4.32753L196.875 -271.344L463.892 -270.409L652.259 -459.711Z" stroke="url(#paint4_linear_5_4506)" stroke-width="1.5" stroke-miterlimit="10" stroke-linecap="round" stroke-linejoin="round" />
		<path d="M634.285 -403.19L806.547 -230.201L1050.71 -231.032L1049.88 13.1275L1222.86 185.286L1049.88 357.548L1050.71 601.708L806.547 600.877L634.285 773.866L462.126 600.877L217.967 601.708L218.798 357.548L45.8081 185.286L218.798 13.1275L217.967 -231.032L462.126 -230.201L634.285 -403.19Z" stroke="url(#paint5_linear_5_4506)" stroke-width="1.5" stroke-miterlimit="10" stroke-linecap="round" stroke-linejoin="round" />
		<path d="M616.414 -346.774L772.468 -189.993L993.666 -190.72L992.939 30.5822L1149.72 186.533L992.939 342.587L993.666 563.889L772.468 563.162L616.414 719.943L460.36 563.162L239.058 563.889L239.785 342.587L83.0034 186.533L239.785 30.5822L239.058 -190.72L460.36 -189.993L616.414 -346.774Z" stroke="url(#paint6_linear_5_4506)" stroke-width="1.5" stroke-miterlimit="10" stroke-linecap="round" stroke-linejoin="round" />
		<path d="M598.44 -290.358L738.39 -149.784L936.731 -150.408L936.003 47.9331L1076.58 187.883L936.003 327.73L936.731 526.07L738.39 525.447L598.44 666.02L458.49 525.447L260.149 526.07L260.876 327.73L120.303 187.883L260.876 47.9331L260.149 -150.408L458.49 -149.784L598.44 -290.358Z" stroke="url(#paint7_linear_5_4506)" stroke-width="1.5" stroke-miterlimit="10" stroke-linecap="round" stroke-linejoin="round" />
		<path d="M580.466 -233.837L704.208 -109.472L879.691 -110.095L879.171 65.3879L1003.43 189.13L879.171 312.872L879.691 488.355L704.208 487.732L580.466 612.098L456.723 487.732L281.24 488.355L281.864 312.872L157.498 189.13L281.864 65.3879L281.24 -110.095L456.723 -109.472L580.466 -233.837Z" stroke="url(#paint8_linear_5_4506)" stroke-width="1.5" stroke-miterlimit="10" stroke-linecap="round" stroke-linejoin="round" />
		<path d="M562.595 -177.421L670.129 -69.2635L822.755 -69.7829L822.235 82.7389L930.393 190.377L822.235 298.015L822.755 450.537L670.129 450.017L562.595 558.175L454.957 450.017L302.435 450.537L302.955 298.015L194.797 190.377L302.955 82.7389L302.435 -69.7829L454.957 -69.2635L562.595 -177.421Z" stroke="url(#paint9_linear_5_4506)" stroke-width="1.5" stroke-miterlimit="10" stroke-linecap="round" stroke-linejoin="round" />
		<path d="M544.621 -121.004L636.051 -29.055L765.715 -29.4705L765.299 100.194L857.249 191.624L765.299 283.054L765.715 412.718L636.051 412.302L544.621 504.252L453.191 412.302L323.527 412.718L323.942 283.054L231.993 191.624L323.942 100.194L323.527 -29.4705L453.191 -29.055L544.621 -121.004Z" stroke="url(#paint10_linear_5_4506)" stroke-width="1.5" stroke-miterlimit="10" stroke-linecap="round" stroke-linejoin="round" />
		<path d="M526.646 -64.4841L601.972 11.1534L708.779 10.8417L708.364 117.545L784.105 192.87L708.364 268.196L708.779 375.003L601.972 374.587L526.646 450.225L451.425 374.587L344.618 375.003L344.93 268.196L269.292 192.87L344.93 117.545L344.618 10.8417L451.425 11.1534L526.646 -64.4841Z" stroke="url(#paint11_linear_5_4506)" stroke-width="1.5" stroke-miterlimit="10" stroke-linecap="round" stroke-linejoin="round" />
		<path d="M508.776 -8.06763L567.894 51.3618L651.739 51.0502L651.531 134.999L710.961 194.117L651.531 253.339L651.739 337.184L567.894 336.873L508.776 396.302L449.554 336.873L365.709 337.184L366.021 253.339L306.487 194.117L366.021 134.999L365.709 51.0502L449.554 51.3618L508.776 -8.06763Z" stroke="url(#paint12_linear_5_4506)" stroke-width="1.5" stroke-miterlimit="10" stroke-linecap="round" stroke-linejoin="round" />
	</g>
	<rect x="185.231" y="-461.13" width="1272.98" height="1200.26" transform="rotate(30 185.231 -461.13)" fill="url(#paint13_linear_5_4506)" />
	<rect x="306.487" width="820" height="306.487" transform="rotate(90 306.487 0)" fill="url(#paint14_linear_5_4506)" />
	<path d="M492.097 45.6289L535.663 89.4054L597.434 89.1949L597.223 150.966L641 194.532L597.223 238.098L597.434 299.869L535.663 299.659L492.097 343.435L448.531 299.659L386.759 299.869L386.97 238.098L343.193 194.532L386.97 150.966L386.759 89.1949L448.531 89.4054L492.097 45.6289Z" stroke="url(#paint15_linear_5_4506)" stroke-width="4" stroke-miterlimit="10" stroke-linecap="round" stroke-linejoin="round" />
	<path d="M467.156 130.972L411.488 186.535H502.093V275.14L557.55 220.314V130.972H467.156Z" stroke="url(#paint16_linear_5_4506)" stroke-width="4" stroke-miterlimit="10" stroke-linecap="round" stroke-linejoin="round" />
	<defs>
		<linearGradient id="paint0_linear_5_4506" x1="-46.1206" y1="1096.84" x2="1348.6" y2="-565.329" gradientUnits="userSpaceOnUse">
			<stop stop-color="#FFFDB1" />
			<stop offset="0.2352" stop-color="#FDD48C" />
			<stop offset="0.4618" stop-color="#FB6931" />
			<stop offset="0.4975" stop-color="#F1673B" />
			<stop offset="0.5656" stop-color="#D5625A" />
			<stop offset="0.659" stop-color="#A75992" />
			<stop offset="0.7731" stop-color="#6A50E4" />
			<stop offset="0.7891" stop-color="#624FF0" />
			<stop offset="0.84" stop-color="#5E4BEC" />
			<stop offset="0.8944" stop-color="#5141DF" />
			<stop offset="0.9502" stop-color="#3C30CB" />
			<stop offset="1" stop-color="#231EB3" />
		</linearGradient>
		<linearGradient id="paint1_linear_5_4506" x1="-14.9229" y1="1039.54" x2="1290.81" y2="-516.577" gradientUnits="userSpaceOnUse">
			<stop stop-color="#FFFDB1" />
			<stop offset="0.2352" stop-color="#FDD48C" />
			<stop offset="0.4618" stop-color="#FB6931" />
			<stop offset="0.4975" stop-color="#F1673B" />
			<stop offset="0.5656" stop-color="#D5625A" />
			<stop offset="0.659" stop-color="#A75992" />
			<stop offset="0.7731" stop-color="#6A50E4" />
			<stop offset="0.7891" stop-color="#624FF0" />
			<stop offset="0.84" stop-color="#5E4BEC" />
			<stop offset="0.8944" stop-color="#5141DF" />
			<stop offset="0.9502" stop-color="#3C30CB" />
			<stop offset="1" stop-color="#231EB3" />
		</linearGradient>
		<linearGradient id="paint2_linear_5_4506" x1="16.2747" y1="982.237" x2="1233.02" y2="-467.826" gradientUnits="userSpaceOnUse">
			<stop stop-color="#FFFDB1" />
			<stop offset="0.2352" stop-color="#FDD48C" />
			<stop offset="0.4618" stop-color="#FB6931" />
			<stop offset="0.4975" stop-color="#F1673B" />
			<stop offset="0.5656" stop-color="#D5625A" />
			<stop offset="0.659" stop-color="#A75992" />
			<stop offset="0.7731" stop-color="#6A50E4" />
			<stop offset="0.7891" stop-color="#624FF0" />
			<stop offset="0.84" stop-color="#5E4BEC" />
			<stop offset="0.8944" stop-color="#5141DF" />
			<stop offset="0.9502" stop-color="#3C30CB" />
			<stop offset="1" stop-color="#231EB3" />
		</linearGradient>
		<linearGradient id="paint3_linear_5_4506" x1="47.4725" y1="924.938" x2="1175.23" y2="-419.074" gradientUnits="userSpaceOnUse">
			<stop stop-color="#FFFDB1" />
			<stop offset="0.2352" stop-color="#FDD48C" />
			<stop offset="0.4618" stop-color="#FB6931" />
			<stop offset="0.4975" stop-color="#F1673B" />
			<stop offset="0.5656" stop-color="#D5625A" />
			<stop offset="0.659" stop-color="#A75992" />
			<stop offset="0.7731" stop-color="#6A50E4" />
			<stop offset="0.7891" stop-color="#624FF0" />
			<stop offset="0.84" stop-color="#5E4BEC" />
			<stop offset="0.8944" stop-color="#5141DF" />
			<stop offset="0.9502" stop-color="#3C30CB" />
			<stop offset="1" stop-color="#231EB3" />
		</linearGradient>
		<linearGradient id="paint4_linear_5_4506" x1="78.67" y1="867.638" x2="1117.44" y2="-370.322" gradientUnits="userSpaceOnUse">
			<stop stop-color="#FFFDB1" />
			<stop offset="0.2352" stop-color="#FDD48C" />
			<stop offset="0.4618" stop-color="#FB6931" />
			<stop offset="0.4975" stop-color="#F1673B" />
			<stop offset="0.5656" stop-color="#D5625A" />
			<stop offset="0.659" stop-color="#A75992" />
			<stop offset="0.7731" stop-color="#6A50E4" />
			<stop offset="0.7891" stop-color="#624FF0" />
			<stop offset="0.84" stop-color="#5E4BEC" />
			<stop offset="0.8944" stop-color="#5141DF" />
			<stop offset="0.9502" stop-color="#3C30CB" />
			<stop offset="1" stop-color="#231EB3" />
		</linearGradient>
		<linearGradient id="paint5_linear_5_4506" x1="109.868" y1="810.338" x2="1059.65" y2="-321.57" gradientUnits="userSpaceOnUse">
			<stop stop-color="#FFFDB1" />
			<stop offset="0.2352" stop-color="#FDD48C" />
			<stop offset="0.4618" stop-color="#FB6931" />
			<stop offset="0.4975" stop-color="#F1673B" />
			<stop offset="0.5656" stop-color="#D5625A" />
			<stop offset="0.659" stop-color="#A75992" />
			<stop offset="0.7731" stop-color="#6A50E4" />
			<stop offset="0.7891" stop-color="#624FF0" />
			<stop offset="0.84" stop-color="#5E4BEC" />
			<stop offset="0.8944" stop-color="#5141DF" />
			<stop offset="0.9502" stop-color="#3C30CB" />
			<stop offset="1" stop-color="#231EB3" />
		</linearGradient>
		<linearGradient id="paint6_linear_5_4506" x1="141.065" y1="753.038" x2="1001.86" y2="-272.819" gradientUnits="userSpaceOnUse">
			<stop stop-color="#FFFDB1" />
			<stop offset="0.2352" stop-color="#FDD48C" />
			<stop offset="0.4618" stop-color="#FB6931" />
			<stop offset="0.4975" stop-color="#F1673B" />
			<stop offset="0.5656" stop-color="#D5625A" />
			<stop offset="0.659" stop-color="#A75992" />
			<stop offset="0.7731" stop-color="#6A50E4" />
			<stop offset="0.7891" stop-color="#624FF0" />
			<stop offset="0.84" stop-color="#5E4BEC" />
			<stop offset="0.8944" stop-color="#5141DF" />
			<stop offset="0.9502" stop-color="#3C30CB" />
			<stop offset="1" stop-color="#231EB3" />
		</linearGradient>
		<linearGradient id="paint7_linear_5_4506" x1="172.263" y1="695.738" x2="944.07" y2="-224.067" gradientUnits="userSpaceOnUse">
			<stop stop-color="#FFFDB1" />
			<stop offset="0.2352" stop-color="#FDD48C" />
			<stop offset="0.4618" stop-color="#FB6931" />
			<stop offset="0.4975" stop-color="#F1673B" />
			<stop offset="0.5656" stop-color="#D5625A" />
			<stop offset="0.659" stop-color="#A75992" />
			<stop offset="0.7731" stop-color="#6A50E4" />
			<stop offset="0.7891" stop-color="#624FF0" />
			<stop offset="0.84" stop-color="#5E4BEC" />
			<stop offset="0.8944" stop-color="#5141DF" />
			<stop offset="0.9502" stop-color="#3C30CB" />
			<stop offset="1" stop-color="#231EB3" />
		</linearGradient>
		<linearGradient id="paint8_linear_5_4506" x1="203.461" y1="638.439" x2="886.28" y2="-175.315" gradientUnits="userSpaceOnUse">
			<stop stop-color="#FFFDB1" />
			<stop offset="0.2352" stop-color="#FDD48C" />
			<stop offset="0.4618" stop-color="#FB6931" />
			<stop offset="0.4975" stop-color="#F1673B" />
			<stop offset="0.5656" stop-color="#D5625A" />
			<stop offset="0.659" stop-color="#A75992" />
			<stop offset="0.7731" stop-color="#6A50E4" />
			<stop offset="0.7891" stop-color="#624FF0" />
			<stop offset="0.84" stop-color="#5E4BEC" />
			<stop offset="0.8944" stop-color="#5141DF" />
			<stop offset="0.9502" stop-color="#3C30CB" />
			<stop offset="1" stop-color="#231EB3" />
		</linearGradient>
		<linearGradient id="paint9_linear_5_4506" x1="234.658" y1="581.139" x2="828.49" y2="-126.563" gradientUnits="userSpaceOnUse">
			<stop stop-color="#FFFDB1" />
			<stop offset="0.2352" stop-color="#FDD48C" />
			<stop offset="0.4618" stop-color="#FB6931" />
			<stop offset="0.4975" stop-color="#F1673B" />
			<stop offset="0.5656" stop-color="#D5625A" />
			<stop offset="0.659" stop-color="#A75992" />
			<stop offset="0.7731" stop-color="#6A50E4" />
			<stop offset="0.7891" stop-color="#624FF0" />
			<stop offset="0.84" stop-color="#5E4BEC" />
			<stop offset="0.8944" stop-color="#5141DF" />
			<stop offset="0.9502" stop-color="#3C30CB" />
			<stop offset="1" stop-color="#231EB3" />
		</linearGradient>
		<linearGradient id="paint10_linear_5_4506" x1="265.856" y1="523.839" x2="770.7" y2="-77.8121" gradientUnits="userSpaceOnUse">
			<stop stop-color="#FFFDB1" />
			<stop offset="0.2352" stop-color="#FDD48C" />
			<stop offset="0.4618" stop-color="#FB6931" />
			<stop offset="0.4975" stop-color="#F1673B" />
			<stop offset="0.5656" stop-color="#D5625A" />
			<stop offset="0.659" stop-color="#A75992" />
			<stop offset="0.7731" stop-color="#6A50E4" />
			<stop offset="0.7891" stop-color="#624FF0" />
			<stop offset="0.84" stop-color="#5E4BEC" />
			<stop offset="0.8944" stop-color="#5141DF" />
			<stop offset="0.9502" stop-color="#3C30CB" />
			<stop offset="1" stop-color="#231EB3" />
		</linearGradient>
		<linearGradient id="paint11_linear_5_4506" x1="297.054" y1="466.539" x2="712.91" y2="-29.0604" gradientUnits="userSpaceOnUse">
			<stop stop-color="#FFFDB1" />
			<stop offset="0.2352" stop-color="#FDD48C" />
			<stop offset="0.4618" stop-color="#FB6931" />
			<stop offset="0.4975" stop-color="#F1673B" />
			<stop offset="0.5656" stop-color="#D5625A" />
			<stop offset="0.659" stop-color="#A75992" />
			<stop offset="0.7731" stop-color="#6A50E4" />
			<stop offset="0.7891" stop-color="#624FF0" />
			<stop offset="0.84" stop-color="#5E4BEC" />
			<stop offset="0.8944" stop-color="#5141DF" />
			<stop offset="0.9502" stop-color="#3C30CB" />
			<stop offset="1" stop-color="#231EB3" />
		</linearGradient>
		<linearGradient id="paint12_linear_5_4506" x1="328.251" y1="409.239" x2="655.12" y2="19.6914" gradientUnits="userSpaceOnUse">
			<stop stop-color="#FFFDB1" />
			<stop offset="0.2352" stop-color="#FDD48C" />
			<stop offset="0.4618" stop-color="#FB6931" />
			<stop offset="0.4975" stop-color="#F1673B" />
			<stop offset="0.5656" stop-color="#D5625A" />
			<stop offset="0.659" stop-color="#A75992" />
			<stop offset="0.7731" stop-color="#6A50E4" />
			<stop offset="0.7891" stop-color="#624FF0" />
			<stop offset="0.84" stop-color="#5E4BEC" />
			<stop offset="0.8944" stop-color="#5141DF" />
			<stop offset="0.9502" stop-color="#3C30CB" />
			<stop offset="1" stop-color="#231EB3" />
		</linearGradient>
		<linearGradient id="paint13_linear_5_4506" x1="821.723" y1="-767.803" x2="821.723" y2="739.127" gradientUnits="userSpaceOnUse">
			<stop offset="0.294453" stop-color="#13173E" stop-opacity="0" />
			<stop offset="0.524016" stop-color="#13173E" stop-opacity="0.74" />
			<stop offset="0.8081" stop-color="#13173E" />
		</linearGradient>
		<linearGradient id="paint14_linear_5_4506" x1="716.487" y1="-78.3095" x2="716.487" y2="306.487" gradientUnits="userSpaceOnUse">
			<stop offset="0.294453" stop-color="#13173E" stop-opacity="0" />
			<stop offset="0.524016" stop-color="#13173E" stop-opacity="0.74" />
			<stop offset="0.8081" stop-color="#13173E" />
		</linearGradient>
		<linearGradient id="paint15_linear_5_4506" x1="357.63" y1="354.751" x2="601.12" y2="64.5709" gradientUnits="userSpaceOnUse">
			<stop stop-color="#FFFFAE" />
			<stop offset="0.2352" stop-color="#FFD688" />
			<stop offset="0.4618" stop-color="#FF6922" />
			<stop offset="0.4975" stop-color="#F46731" />
			<stop offset="0.5656" stop-color="#D86157" />
			<stop offset="0.659" stop-color="#A95794" />
			<stop offset="0.7731" stop-color="#6A49E9" />
			<stop offset="0.7891" stop-color="#6147F5" />
			<stop offset="0.84" stop-color="#5D43F1" />
			<stop offset="0.8944" stop-color="#5038E4" />
			<stop offset="0.9502" stop-color="#3B25D0" />
			<stop offset="1" stop-color="#210FB7" />
		</linearGradient>
		<linearGradient id="paint16_linear_5_4506" x1="456.736" y1="236.53" x2="577.602" y2="92.4876" gradientUnits="userSpaceOnUse">
			<stop stop-color="#FFFFAE" />
			<stop offset="0.2352" stop-color="#FFD688" />
			<stop offset="0.4618" stop-color="#FF6922" />
			<stop offset="0.4975" stop-color="#F46731" />
			<stop offset="0.5656" stop-color="#D86157" />
			<stop offset="0.659" stop-color="#A95794" />
			<stop offset="0.7731" stop-color="#6A49E9" />
			<stop offset="0.7891" stop-color="#6147F5" />
			<stop offset="0.84" stop-color="#5D43F1" />
			<stop offset="0.8944" stop-color="#5038E4" />
			<stop offset="0.9502" stop-color="#3B25D0" />
			<stop offset="1" stop-color="#210FB7" />
		</linearGradient>
		<clipPath id="clip0_5_4506">
			<rect width="1730" height="1730" fill="white" transform="translate(-141 -686)" />
		</clipPath>
	</defs>
</svg>
