<svg width="684" height="392" viewBox="0 0 684 392" fill="none" xmlns="http://www.w3.org/2000/svg">
	<g clip-path="url(#clip0_41_4867)">
		<path opacity="0.1" d="M325.305 -100.344L140.723 84.2734H440.714V378.414L624.573 196.417V-100.344H325.305Z" fill="#13173E" stroke="url(#paint0_linear_41_4867)" stroke-width="1.5" stroke-miterlimit="10" stroke-linecap="round" stroke-linejoin="round" />
		<path opacity="0.2" d="M337.587 -75.132L168.447 94.123H443.424V363.684L611.842 196.869V-75.132H337.587Z" fill="#13173E" stroke="url(#paint1_linear_41_4867)" stroke-width="1.5" stroke-miterlimit="10" stroke-linecap="round" stroke-linejoin="round" />
		<path opacity="0.3" d="M349.868 -49.8297L196.17 103.882H446.042V348.864L599.198 197.321V-49.8297H349.868Z" fill="#13173E" stroke="url(#paint2_linear_41_4867)" stroke-width="1.5" stroke-miterlimit="10" stroke-linecap="round" stroke-linejoin="round" />
		<path opacity="0.4" d="M362.241 -24.6174L223.895 113.733H448.752V334.135L586.466 197.773V-24.6174H362.241Z" fill="#13173E" stroke="url(#paint3_linear_41_4867)" stroke-width="1.5" stroke-miterlimit="10" stroke-linecap="round" stroke-linejoin="round" />
		<path opacity="0.5" d="M374.521 0.594299L251.617 123.582H451.37V319.405L573.823 198.224V0.594299H374.521Z" fill="#13173E" stroke="url(#paint4_linear_41_4867)" stroke-width="1.5" stroke-miterlimit="10" stroke-linecap="round" stroke-linejoin="round" />
		<path opacity="0.6" d="M386.802 25.8066L279.34 133.342H454.079V304.675L561.089 198.676V25.8066H386.802Z" fill="#13173E" stroke="url(#paint5_linear_41_4867)" stroke-width="1.5" stroke-miterlimit="10" stroke-linecap="round" stroke-linejoin="round" />
		<path opacity="0.7" d="M399.085 51.0189L307.064 143.192H456.699V289.856L548.448 199.128V51.0189H399.085Z" fill="#13173E" stroke="url(#paint6_linear_41_4867)" stroke-width="1.5" stroke-miterlimit="10" stroke-linecap="round" stroke-linejoin="round" />
		<path opacity="0.8" d="M411.456 76.2305L334.787 152.951H459.407V275.126L535.714 199.489V76.2305H411.456Z" fill="#13173E" stroke="url(#paint7_linear_41_4867)" stroke-width="1.5" stroke-miterlimit="10" stroke-linecap="round" stroke-linejoin="round" />
		<path opacity="0.9" d="M423.738 101.533L362.512 162.801H462.027V260.396L523.073 199.941V101.533H423.738Z" fill="#13173E" stroke="url(#paint8_linear_41_4867)" stroke-width="1.5" stroke-miterlimit="10" stroke-linecap="round" stroke-linejoin="round" />
		<path opacity="0.1" d="M902.53 -154.202L1068.24 9.63097H798.861V270.698L633.875 109.124V-154.202H902.53Z" fill="#13173E" stroke="url(#paint9_linear_41_4867)" stroke-width="1.5" stroke-miterlimit="10" stroke-linecap="round" stroke-linejoin="round" />
		<path opacity="0.2" d="M867.221 -130.526L1019.65 20.2039H771.86V260.215L620.148 111.654V-130.526H867.221Z" fill="#13173E" stroke="url(#paint10_linear_41_4867)" stroke-width="1.5" stroke-miterlimit="10" stroke-linecap="round" stroke-linejoin="round" />
		<path opacity="0.3" d="M831.912 -106.76L970.981 30.7765H744.858V249.823L606.422 114.274V-106.76H831.912Z" fill="#13173E" stroke="url(#paint11_linear_41_4867)" stroke-width="1.5" stroke-miterlimit="10" stroke-linecap="round" stroke-linejoin="round" />
		<path opacity="0.4" d="M796.603 -83.0841L922.306 41.2592H717.857V239.431L592.695 116.805V-83.0841H796.603Z" fill="#13173E" stroke="url(#paint12_linear_41_4867)" stroke-width="1.5" stroke-miterlimit="10" stroke-linecap="round" stroke-linejoin="round" />
		<path opacity="0.5" d="M761.203 -59.3181L873.722 51.8317H690.946V228.949L578.969 119.335V-59.3181H761.203Z" fill="#13173E" stroke="url(#paint13_linear_41_4867)" stroke-width="1.5" stroke-miterlimit="10" stroke-linecap="round" stroke-linejoin="round" />
		<path opacity="0.6" d="M725.894 -35.6421L825.048 62.4047H663.945V218.557L565.242 121.956V-35.6421H725.894Z" fill="#13173E" stroke="url(#paint14_linear_41_4867)" stroke-opacity="0.3" stroke-width="1.5" stroke-miterlimit="10" stroke-linecap="round" stroke-linejoin="round" />
		<path opacity="0.7" d="M690.586 -11.8761L776.375 72.9773H636.946V208.074L551.518 124.486V-11.8761H690.586Z" fill="#13173E" stroke="url(#paint15_linear_41_4867)" stroke-width="1.5" stroke-miterlimit="10" stroke-linecap="round" stroke-linejoin="round" />
		<path opacity="0.8" d="M655.275 11.7999L727.789 83.5503H609.942V197.682L537.789 127.016V11.7999H655.275Z" fill="#13173E" stroke="url(#paint16_linear_41_4867)" stroke-opacity="0.5" stroke-width="1.5" stroke-miterlimit="10" stroke-linecap="round" stroke-linejoin="round" />
		<path opacity="0.9" d="M619.968 35.5659L679.117 94.0326H582.943V187.29L524.064 129.546V35.5659H619.968Z" fill="#13173E" stroke="url(#paint17_linear_41_4867)" stroke-opacity="0.3" stroke-width="1.5" stroke-miterlimit="10" stroke-linecap="round" stroke-linejoin="round" />
		<path d="M443.894 123.116L400.143 167.02H471.335V236.852L515 193.639V123.116H443.894Z" fill="#13183D" stroke="url(#paint18_linear_41_4867)" stroke-width="4" stroke-miterlimit="10" stroke-linecap="square" />
		<path d="M585.934 51.7285L629.772 95.114H558.579V164.168L514.914 121.387V51.7285H585.934Z" fill="#13183D" stroke="url(#paint19_linear_41_4867)" stroke-width="4" stroke-miterlimit="10" stroke-linecap="square" />
	</g>
	<defs>
		<linearGradient id="paint0_linear_41_4867" x1="292.391" y1="230.648" x2="718.475" y2="-195.146" gradientUnits="userSpaceOnUse">
			<stop stop-color="#FFFFAE" />
			<stop offset="0.2948" stop-color="#FFD688" />
			<stop offset="0.7551" stop-color="#FF6922" />
		</linearGradient>
		<linearGradient id="paint1_linear_41_4867" x1="307.395" y1="228.288" x2="698.031" y2="-162.083" gradientUnits="userSpaceOnUse">
			<stop stop-color="#FFFFAE" />
			<stop offset="0.2948" stop-color="#FFD688" />
			<stop offset="0.7551" stop-color="#FF6922" />
		</linearGradient>
		<linearGradient id="paint2_linear_41_4867" x1="322.397" y1="225.927" x2="677.585" y2="-129.019" gradientUnits="userSpaceOnUse">
			<stop stop-color="#FFFFAE" />
			<stop offset="0.2948" stop-color="#FFD688" />
			<stop offset="0.7551" stop-color="#FF6922" />
		</linearGradient>
		<linearGradient id="paint3_linear_41_4867" x1="337.4" y1="223.567" x2="657.14" y2="-95.9561" gradientUnits="userSpaceOnUse">
			<stop stop-color="#FFFFAE" />
			<stop offset="0.2948" stop-color="#FFD688" />
			<stop offset="0.7551" stop-color="#FF6922" />
		</linearGradient>
		<linearGradient id="paint4_linear_41_4867" x1="352.402" y1="221.206" x2="636.694" y2="-62.8929" gradientUnits="userSpaceOnUse">
			<stop stop-color="#FFFFAE" />
			<stop offset="0.2948" stop-color="#FFD688" />
			<stop offset="0.7551" stop-color="#FF6922" />
		</linearGradient>
		<linearGradient id="paint5_linear_41_4867" x1="367.404" y1="218.846" x2="616.248" y2="-29.8297" gradientUnits="userSpaceOnUse">
			<stop stop-color="#FFFFAE" />
			<stop offset="0.2948" stop-color="#FFD688" />
			<stop offset="0.7551" stop-color="#FF6922" />
		</linearGradient>
		<linearGradient id="paint6_linear_41_4867" x1="382.408" y1="216.486" x2="595.804" y2="3.2342" gradientUnits="userSpaceOnUse">
			<stop stop-color="#FFFFAE" />
			<stop offset="0.2948" stop-color="#FFD688" />
			<stop offset="0.7551" stop-color="#FF6922" />
		</linearGradient>
		<linearGradient id="paint7_linear_41_4867" x1="397.409" y1="214.125" x2="575.358" y2="36.2969" gradientUnits="userSpaceOnUse">
			<stop stop-color="#FFFFAE" />
			<stop offset="0.2948" stop-color="#FFD688" />
			<stop offset="0.7551" stop-color="#FF6922" />
		</linearGradient>
		<linearGradient id="paint8_linear_41_4867" x1="412.413" y1="211.764" x2="554.914" y2="69.3605" gradientUnits="userSpaceOnUse">
			<stop stop-color="#FFFFAE" />
			<stop offset="0.2948" stop-color="#FFD688" />
			<stop offset="0.7551" stop-color="#FF6922" />
		</linearGradient>
		<linearGradient id="paint9_linear_41_4867" x1="653.847" y1="125.039" x2="994.444" y2="-215.326" gradientUnits="userSpaceOnUse">
			<stop stop-color="#FF6922" />
			<stop offset="0.4488" stop-color="#6147F5" />
			<stop offset="0.986" stop-color="#210FB7" />
		</linearGradient>
		<linearGradient id="paint10_linear_41_4867" x1="638.46" y1="126.368" x2="951.813" y2="-186.772" gradientUnits="userSpaceOnUse">
			<stop stop-color="#FF6922" />
			<stop offset="0.4488" stop-color="#6147F5" />
			<stop offset="0.986" stop-color="#210FB7" />
		</linearGradient>
		<linearGradient id="paint11_linear_41_4867" x1="623.074" y1="127.696" x2="909.183" y2="-158.218" gradientUnits="userSpaceOnUse">
			<stop stop-color="#FF6922" />
			<stop offset="0.4488" stop-color="#6147F5" />
			<stop offset="0.986" stop-color="#210FB7" />
		</linearGradient>
		<linearGradient id="paint12_linear_41_4867" x1="607.688" y1="129.025" x2="866.553" y2="-129.664" gradientUnits="userSpaceOnUse">
			<stop stop-color="#FF6922" />
			<stop offset="0.4488" stop-color="#6147F5" />
			<stop offset="0.986" stop-color="#210FB7" />
		</linearGradient>
		<linearGradient id="paint13_linear_41_4867" x1="592.302" y1="130.354" x2="823.923" y2="-101.11" gradientUnits="userSpaceOnUse">
			<stop stop-color="#FF6922" />
			<stop offset="0.4488" stop-color="#6147F5" />
			<stop offset="0.986" stop-color="#210FB7" />
		</linearGradient>
		<linearGradient id="paint14_linear_41_4867" x1="576.916" y1="131.682" x2="781.293" y2="-72.5553" gradientUnits="userSpaceOnUse">
			<stop stop-color="#FF6922" />
			<stop offset="0.4488" stop-color="#6147F5" />
			<stop offset="0.986" stop-color="#210FB7" />
		</linearGradient>
		<linearGradient id="paint15_linear_41_4867" x1="561.532" y1="133.011" x2="738.664" y2="-44.0013" gradientUnits="userSpaceOnUse">
			<stop stop-color="#FF6922" />
			<stop offset="0.4488" stop-color="#6147F5" />
			<stop offset="0.986" stop-color="#210FB7" />
		</linearGradient>
		<linearGradient id="paint16_linear_41_4867" x1="546.144" y1="134.339" x2="696.032" y2="-15.4471" gradientUnits="userSpaceOnUse">
			<stop stop-color="#FF6922" />
			<stop offset="0.4488" stop-color="#6147F5" />
			<stop offset="0.986" stop-color="#210FB7" />
		</linearGradient>
		<linearGradient id="paint17_linear_41_4867" x1="530.76" y1="135.668" x2="653.404" y2="13.107" gradientUnits="userSpaceOnUse">
			<stop stop-color="#FF6922" />
			<stop offset="0.4488" stop-color="#6147F5" />
			<stop offset="0.986" stop-color="#210FB7" />
		</linearGradient>
		<linearGradient id="paint18_linear_41_4867" x1="433.988" y1="203.927" x2="539.163" y2="98.912" gradientUnits="userSpaceOnUse">
			<stop stop-color="#FFFDB1" />
			<stop offset="0.2948" stop-color="#FDD48C" />
			<stop offset="0.7551" stop-color="#FB6931" />
		</linearGradient>
		<linearGradient id="paint19_linear_41_4867" x1="520.372" y1="126.73" x2="611.641" y2="35.5997" gradientUnits="userSpaceOnUse">
			<stop stop-color="#FB6931" />
			<stop offset="0.4488" stop-color="#624FF0" />
			<stop offset="0.986" stop-color="#231EB3" />
		</linearGradient>
		<clipPath id="clip0_41_4867">
			<rect width="684" height="392" fill="white" />
		</clipPath>
	</defs>
</svg>
